<!DOCTYPE svg PUBLIC "-//W3C//DTD SVG 1.1//EN" "http://www.w3.org/Graphics/SVG/1.1/DTD/svg11.dtd">
<!-- Uploaded to: SVG Repo, www.svgrepo.com, Transformed by: SVG Repo Mixer Tools -->
<svg fill="#ebbcba" height="800px" width="800px" version="1.1" id="Layer_1" xmlns="http://www.w3.org/2000/svg" xmlns:xlink="http://www.w3.org/1999/xlink" viewBox="0 0 512 512" xml:space="preserve" stroke="#ebbcba" stroke-width="5.12">
<g id="SVGRepo_bgCarrier" stroke-width="0"/>
<g id="SVGRepo_tracerCarrier" stroke-linecap="round" stroke-linejoin="round"/>
<g id="SVGRepo_iconCarrier"> <g> <g> <g> <circle cx="345.085" cy="413.206" r="10.056"/> <path d="M501.968,437.307c-4.165-3.017-9.08-4.611-14.213-4.611c-7.76,0-15.108,3.749-19.655,10.029 c-9.417,13.004-24.604,20.769-40.623,20.769c-19.844,0-37.796-11.821-45.802-29.777c3.392-6.078,5.334-13.073,5.334-20.513 c0-7.388-1.912-14.335-5.259-20.383c8.045-17.849,25.967-29.598,45.726-29.598c16.017,0,31.203,7.767,40.621,20.775 c4.547,6.282,11.896,10.033,19.657,10.033c5.132,0,10.045-1.594,14.207-4.608c5.249-3.797,8.704-9.413,9.728-15.81 c1.024-6.396-0.503-12.808-4.302-18.057c-18.514-25.572-48.387-40.838-79.911-40.838c-38.31,0-72.669,21.907-89.024,56.251 H215.544c0.012-0.46,0.034-0.918,0.034-1.381c0-14.029-5.29-26.841-13.97-36.565v-39.571c0-4.466-3.618-8.084-8.084-8.084 c-4.466,0-8.084,3.618-8.084,8.084v27.071c-3.387-1.719-6.949-3.056-10.624-4.035c-0.223-0.059-0.445-0.124-0.67-0.181 c-0.607-0.154-1.219-0.291-1.832-0.424c-0.387-0.084-0.774-0.166-1.163-0.243c-0.535-0.103-1.069-0.201-1.608-0.288 c-0.496-0.081-0.994-0.152-1.494-0.22c-0.468-0.064-0.935-0.128-1.404-0.179c-0.623-0.068-1.25-0.117-1.879-0.165 c-0.369-0.027-0.736-0.065-1.106-0.084c-1.011-0.056-2.028-0.089-3.053-0.089c-1.116,0-2.22,0.044-3.32,0.11 c-0.286,0.017-0.57,0.043-0.855,0.066c-0.868,0.066-1.729,0.151-2.586,0.257c-0.251,0.031-0.502,0.061-0.753,0.096 c-3.407,0.468-6.713,1.249-9.893,2.314c-0.129,0.043-0.258,0.087-0.387,0.131c-1.028,0.352-2.046,0.731-3.046,1.143 c-0.039,0.016-0.079,0.03-0.119,0.046c-1.065,0.441-2.113,0.912-3.142,1.416c-0.098,0.047-0.193,0.1-0.291,0.149 c-0.847,0.421-1.679,0.864-2.501,1.327c-0.136,0.077-0.277,0.141-0.413,0.219V252.28h52.137v13.968 c0,4.466,3.618,8.084,8.084,8.084s8.084-3.618,8.084-8.084v-22.053v-50.878c0-4.466-3.618-8.084-8.084-8.084h-6.646v-48.419 h84.184c2.907,0,5.592-1.561,7.029-4.089l15.982-28.114c7.063-3.234,11.991-10.352,11.991-18.615V46.427 c11.153-0.831,19.979-10.15,19.979-21.511v-3.32c0-11.906-9.687-21.593-21.593-21.593H21.593C9.687,0.001,0,9.688,0,21.594v3.32 C0,36.101,8.552,45.325,19.461,46.4v39.596c0,8.439,5.133,15.698,12.439,18.831l15.859,27.899 c1.437,2.529,4.121,4.089,7.029,4.089h13.64v7.247c0,8.381,4.473,15.719,11.142,19.812 c-7.129,12.961-19.664,38.951-27.134,72.991c-9.774,44.542-12.185,111.549,31.243,178.853 c1.306,22.124,19.711,39.723,42.157,39.723h212.475c16.291,34.53,50.706,56.558,89.167,56.558 c31.523,0,61.395-15.261,79.907-40.821c3.017-4.164,4.611-9.079,4.611-14.213C511.995,449.205,508.247,441.858,501.968,437.307z M427.477,330.885c26.354,0,51.332,12.768,66.814,34.151c1.266,1.749,1.775,3.887,1.435,6.019 c-0.342,2.132-1.493,4.003-3.245,5.271c-1.388,1.006-3.022,1.537-4.725,1.537c-2.631,0-5.022-1.219-6.561-3.346 c-12.45-17.197-32.531-27.463-53.717-27.463c-23.637,0-45.286,12.706-57.075,32.594c-0.083-0.064-0.17-0.122-0.254-0.184 c-0.205-0.154-0.415-0.302-0.622-0.452c-0.322-0.233-0.643-0.468-0.971-0.692c-0.319-0.218-0.646-0.426-0.97-0.635 c-0.223-0.143-0.444-0.291-0.669-0.43c-0.44-0.272-0.888-0.531-1.339-0.788c-0.119-0.068-0.235-0.138-0.355-0.204 c-0.549-0.305-1.106-0.596-1.669-0.876c-0.026-0.013-0.052-0.027-0.078-0.04c-2.41-1.195-4.95-2.165-7.592-2.887 C370.455,346.898,397.529,330.885,427.477,330.885z M133.548,341.807c0.321-0.313,0.641-0.626,0.973-0.928 c0.067-0.06,0.136-0.116,0.203-0.177c0.663-0.595,1.351-1.163,2.053-1.712c0.224-0.175,0.444-0.356,0.672-0.525 c0.224-0.167,0.455-0.323,0.682-0.486c0.32-0.227,0.638-0.457,0.965-0.674c0.192-0.128,0.388-0.249,0.582-0.374 c0.376-0.241,0.755-0.482,1.138-0.709c0.163-0.097,0.328-0.189,0.492-0.284c0.429-0.247,0.861-0.487,1.299-0.718 c0.133-0.07,0.267-0.137,0.401-0.206c0.48-0.245,0.965-0.482,1.454-0.706c0.103-0.047,0.207-0.095,0.311-0.141 c0.528-0.236,1.062-0.462,1.6-0.675c0.075-0.03,0.151-0.06,0.227-0.089c0.57-0.221,1.146-0.429,1.727-0.623 c0.053-0.017,0.107-0.037,0.159-0.054c0.601-0.198,1.209-0.382,1.821-0.551c0.04-0.011,0.08-0.023,0.12-0.033 c0.62-0.169,1.244-0.321,1.872-0.459c0.039-0.009,0.076-0.018,0.114-0.027c0.619-0.135,1.243-0.251,1.87-0.355 c0.052-0.009,0.102-0.019,0.154-0.028c0.602-0.097,1.206-0.176,1.813-0.245c0.08-0.009,0.158-0.022,0.238-0.03 c0.581-0.063,1.165-0.106,1.75-0.141c0.104-0.006,0.207-0.018,0.31-0.024c0.683-0.037,1.37-0.056,2.058-0.056 c0.659,0,1.313,0.017,1.964,0.05c0.149,0.008,0.295,0.023,0.444,0.032c0.507,0.031,1.012,0.065,1.513,0.115 c0.125,0.013,0.25,0.032,0.375,0.045c0.528,0.058,1.054,0.122,1.575,0.2c0.071,0.011,0.141,0.025,0.212,0.037 c0.579,0.092,1.156,0.192,1.726,0.309c0.003,0.001,0.008,0.001,0.011,0.002c17.661,3.628,30.985,19.293,30.985,38.012 c0,9.309-3.297,17.861-8.781,24.554c-0.101,0.123-0.205,0.244-0.307,0.365c-0.259,0.308-0.522,0.611-0.79,0.911 c-0.17,0.191-0.343,0.378-0.517,0.565c-0.198,0.213-0.4,0.424-0.603,0.632c-0.234,0.239-0.469,0.479-0.709,0.713 c-0.13,0.127-0.264,0.252-0.397,0.377c-0.311,0.299-0.623,0.592-0.942,0.874c-0.011,0.01-0.023,0.019-0.033,0.029 c-4.865,4.303-10.792,7.392-17.265,8.847c-0.034,0.008-0.069,0.016-0.103,0.024c-0.447,0.099-0.899,0.186-1.352,0.271 c-0.161,0.029-0.321,0.059-0.483,0.086c-0.382,0.066-0.765,0.124-1.15,0.179c-0.25,0.034-0.501,0.066-0.753,0.096 c-0.324,0.039-0.649,0.078-0.976,0.108c-0.347,0.032-0.697,0.056-1.048,0.08c-0.249,0.017-0.497,0.038-0.748,0.05 c-0.613,0.029-1.229,0.046-1.849,0.046c-0.623,0-1.242-0.018-1.857-0.047c-0.181-0.009-0.361-0.024-0.542-0.035 c-0.445-0.027-0.888-0.059-1.329-0.101c-0.186-0.017-0.371-0.039-0.556-0.059c-0.458-0.051-0.914-0.108-1.367-0.175 c-0.142-0.021-0.283-0.041-0.425-0.064c-0.568-0.089-1.132-0.189-1.691-0.303c-0.018-0.003-0.037-0.008-0.055-0.011 c-13.209-2.715-23.989-12.166-28.584-24.59c-0.029-0.079-0.057-0.157-0.085-0.237c-0.159-0.439-0.307-0.883-0.451-1.329 c-0.065-0.204-0.13-0.406-0.192-0.612c-0.097-0.319-0.185-0.642-0.275-0.965c-0.079-0.288-0.16-0.575-0.232-0.866 c-0.755-3.016-1.161-6.168-1.161-9.413c0-9.952,3.769-19.038,9.951-25.913c0.162-0.18,0.328-0.356,0.493-0.531 c0.284-0.305,0.568-0.609,0.862-0.904C133.254,342.088,133.402,341.95,133.548,341.807z M185.439,236.109h-50.732v-34.707h5.24 h38.846h6.646V236.109z M148.031,185.234v-48.419h22.678v48.419H148.031z M27.545,30.339h-5.951 c-2.992,0-5.426-2.433-5.426-5.425v-3.32c0-2.991,2.434-5.425,5.425-5.425h282.854c2.991,0,5.425,2.434,5.425,5.425v3.32 c0,2.991-2.434,5.425-5.425,5.425h-6.469H27.545z M76.51,120.646H59.49l-8.054-14.17h172.228c4.466,0,8.084-3.618,8.084-8.084 s-3.618-8.084-8.084-8.084H39.941c-2.378,0-4.312-1.934-4.312-4.312V46.508h254.266v39.488c0,2.378-1.934,4.312-4.312,4.312 h-34.972c-4.466,0-8.084,3.618-8.084,8.084s3.618,8.084,8.084,8.084h23.802l-8.055,14.17h-87.564h-38.846H106.85H76.51z M98.766,136.815v7.247c0,3.906-3.179,7.084-7.085,7.084s-7.085-3.178-7.085-7.084v-7.247H98.766z M88.829,392.819 c-25.561-46.433-32.548-97.448-20.724-151.922c8.13-37.463,23.137-65.128,28.424-74.101 c10.502-2.237,18.406-11.578,18.406-22.736v-7.247h16.929v48.419h-5.24h-1.406c-4.466,0-8.084,3.618-8.084,8.084v142.115 c0,0.18,0.011,0.367,0.013,0.549c-7.208,9.299-11.513,20.955-11.513,33.604c0,2.14,0.136,4.247,0.375,6.323 C98.669,379.799,92.74,385.715,88.829,392.819z M125.835,439.272c-14.376-0.001-26.07-11.695-26.07-26.07 c0-8.497,4.091-16.246,10.693-21.058c7.216,16.123,21.763,27.748,39.032,31.282c0.037,0.008,0.073,0.015,0.111,0.023 c1.725,0.349,3.474,0.621,5.248,0.805c0.158,0.016,0.318,0.029,0.477,0.044c0.683,0.065,1.37,0.117,2.06,0.157 c0.226,0.013,0.453,0.027,0.68,0.038c0.843,0.039,1.689,0.065,2.541,0.065c0.85,0,1.697-0.025,2.539-0.065 c0.312-0.014,0.62-0.038,0.929-0.056c0.514-0.032,1.027-0.07,1.539-0.117c0.393-0.036,0.785-0.075,1.176-0.119 c0.388-0.044,0.774-0.096,1.159-0.148c12.691-1.703,24.017-7.748,32.442-16.592c0.149-0.155,0.298-0.309,0.444-0.466 c0.322-0.346,0.639-0.697,0.953-1.052c0.25-0.281,0.496-0.567,0.739-0.854c0.244-0.288,0.488-0.574,0.727-0.867 c0.384-0.47,0.757-0.949,1.125-1.431c0.101-0.134,0.208-0.264,0.309-0.399c0.506-0.676,0.995-1.366,1.47-2.066 c0.026-0.039,0.051-0.079,0.078-0.117c0.45-0.666,0.882-1.344,1.302-2.031c0.054-0.087,0.106-0.176,0.159-0.264 c0.41-0.677,0.805-1.364,1.186-2.06c0.027-0.049,0.054-0.096,0.08-0.146c1.247-2.297,2.337-4.696,3.252-7.186 c0.019-0.052,0.037-0.104,0.056-0.156c0.15-0.411,0.304-0.818,0.443-1.233h99.562c-5.704,7.163-9.124,16.22-9.124,26.068 s3.421,18.906,9.125,26.07H125.835z M319.319,413.201c0-14.203,11.557-25.759,25.761-25.759c13.76,0,25.034,10.845,25.726,24.435 c0.023,0.439,0.033,0.881,0.033,1.325s-0.012,0.886-0.033,1.325c-0.692,13.592-11.967,24.437-25.726,24.437 C330.875,438.963,319.319,427.405,319.319,413.201z M494.289,461.691c-15.482,21.376-40.458,34.138-66.813,34.138 c-30.081,0-57.214-16.117-71.745-41.84c3.982-1.071,7.733-2.708,11.16-4.824c0.056-0.034,0.111-0.072,0.167-0.107 c0.499-0.312,0.994-0.63,1.478-0.96c0.234-0.158,0.46-0.328,0.691-0.492c0.302-0.216,0.607-0.427,0.902-0.65 c0.049-0.036,0.098-0.069,0.146-0.106c11.755,20.017,33.454,32.809,57.2,32.809c21.188,0,41.27-10.263,53.719-27.454 c1.539-2.125,3.93-3.344,6.561-3.344c1.704,0,3.339,0.531,4.727,1.537c2.126,1.54,3.345,3.931,3.345,6.563 C495.826,458.668,495.295,460.302,494.289,461.691z"/> <path d="M159.371,392.358c12.556,0,22.772-10.216,22.772-22.772c0-12.556-10.215-22.773-22.772-22.773 c-12.556,0-22.772,10.216-22.772,22.773C136.598,382.142,146.814,392.358,159.371,392.358z M159.371,362.981 c3.641,0,6.604,2.963,6.604,6.604s-2.963,6.604-6.604,6.604s-6.604-2.963-6.604-6.604S155.73,362.981,159.371,362.981z"/> </g> </g> </g> </g>
</svg>